<?xml version="1.0" encoding="iso-8859-1"?>
<!-- Uploaded to: SVG Repo, www.svgrepo.com, Generator: SVG Repo Mixer Tools -->
<svg height="800px" width="800px" version="1.1" id="Layer_1" xmlns="http://www.w3.org/2000/svg" xmlns:xlink="http://www.w3.org/1999/xlink" 
	 viewBox="0 0 512 512" xml:space="preserve">
<circle style="fill:#79C9DB;" cx="256" cy="256" r="256"/>
<path style="fill:#99DBFF;" d="M256,512C114.615,512,0,397.385,0,256S114.615,0,256,0V512z"/>
<path style="fill:#D29500;" d="M5.071,205.091C1.75,221.545,0,238.567,0,256c0,141.385,114.615,256,256,256s256-114.615,256-256
	c0-17.433-1.75-34.455-5.071-50.909H5.071z"/>
<path style="fill:#FEAB00;" d="M5.071,205.091C1.75,221.545,0,238.567,0,256c0,141.385,114.615,256,256,256V205.091H5.071z"/>
<path style="fill:#6B3E35;" d="M128.319,387.773l-88.492,5.401C85.247,464.602,165.085,512,256,512
	c117.463,0,216.438-79.116,246.572-186.961C378.502,321.76,251.743,341.74,128.319,387.773z"/>
<g>
	<path style="fill:#924045;" d="M128.319,387.773l-88.492,5.401C85.247,464.602,165.085,512,256,512l0.003-162.455
		C213.212,359.309,170.569,372.015,128.319,387.773z"/>
	<path style="fill:#924045;" d="M190.394,416.161L83.911,445.487C129.37,486.8,189.734,512,256,512
		c99.152,0,185.129-56.372,227.649-138.812C386.431,373.193,286.236,387.9,190.394,416.161z"/>
</g>
<path style="fill:#6B3E35;" d="M150.048,489.079C182.333,503.791,218.204,512,256,512c78.463,0,148.669-35.306,195.626-90.892
	c-66.599,1.671-133.729,10.079-200.476,25.665L150.048,489.079z"/>
<path style="fill:#C55C51;" d="M1.708,285.545C16.358,413.011,124.609,512,256,512c60.614,0,116.297-21.079,160.148-56.289
	c-108.655-77.129-234.63-133.613-373.421-162.512C29.044,290.349,15.369,287.808,1.708,285.545z"/>
<path style="fill:#FD774F;" d="M1.708,285.545C16.358,413.011,124.609,512,256,512l0.001-148.785
	c-66.865-30.679-138.195-54.384-213.276-70.017C29.044,290.349,15.369,287.808,1.708,285.545z"/>
<path style="fill:#9F4F45;" d="M21.265,342.352c-2.262-0.471-4.524-0.912-6.785-1.367C49.524,440.592,144.41,512,256,512
	c40.055,0,77.953-9.212,111.711-25.617C265.36,418.697,148.719,368.89,21.265,342.352z"/>
<g>
	<path style="fill:#C26053;" d="M21.265,342.352c-2.262-0.471-4.524-0.912-6.785-1.367C49.524,440.592,144.41,512,256,512
		l0.003-89.465C183.007,386.897,104.438,359.67,21.265,342.352z"/>
	<path style="fill:#C26053;" d="M43.478,398.705C89.437,467.037,167.456,512,256,512c16.999,0,33.604-1.676,49.674-4.839
		c-16.237-9.642-32.8-18.848-49.676-27.599C189.722,445.196,118.627,417.856,43.478,398.705z"/>
</g>
<path style="fill:#FD774F;" d="M43.478,398.705C89.437,467.037,167.456,512,256,512l-0.001-32.438
	C189.722,445.196,118.627,417.856,43.478,398.705z"/>
<path style="fill:#6B3E35;" d="M256,305.94c-8.032,0-14.545-6.512-14.545-14.545v-47.089c0-8.033,6.513-14.545,14.545-14.545
	c8.032,0,14.545,6.512,14.545,14.545v47.089C270.545,299.428,264.032,305.94,256,305.94z"/>
<path style="fill:#924045;" d="M256,305.94c-8.032,0-14.545-6.512-14.545-14.545v-47.089c0-8.033,6.513-14.545,14.545-14.545V305.94
	z"/>
<path style="fill:#00B379;" d="M264.892,115.197c-5.239-4.047-12.545-4.047-17.785,0c-11.392,8.8-18.383,24.208-22.24,35.585
	c-4.352,12.836-6.848,26.685-6.848,37.996c0,11.312,2.528,23.945,7.119,35.574c3.756,9.513,10.615,22.692,21.969,31.465
	c2.618,2.023,5.756,3.034,8.892,3.034s6.273-1.011,8.892-3.034c11.356-8.772,18.214-21.952,21.969-31.465
	c4.589-11.629,7.119-24.262,7.119-35.574c0-11.311-2.496-25.159-6.848-37.997C283.274,139.405,276.284,123.997,264.892,115.197z"/>
<path style="fill:#72D473;" d="M256,112.161c-3.136,0-6.273,1.012-8.892,3.036c-11.392,8.8-18.383,24.208-22.24,35.585
	c-4.352,12.836-6.848,26.685-6.848,37.996c0,11.312,2.528,23.945,7.119,35.574c3.756,9.513,10.615,22.692,21.969,31.465
	c2.618,2.023,5.756,3.034,8.892,3.034L256,112.161z"/>
<path style="fill:#6B3E35;" d="M367.711,309.818c-8.032,0-14.545-6.512-14.545-14.545v-37.769c0-8.033,6.513-14.545,14.545-14.545
	c8.032,0,14.545,6.512,14.545,14.545v37.769C382.256,303.306,375.744,309.818,367.711,309.818z"/>
<path style="fill:#00B379;" d="M405.107,131.905c-5.018-14.799-14.038-34.785-28.505-45.961c-5.239-4.047-12.545-4.047-17.785,0
	c-14.465,11.175-23.485,31.162-28.506,45.962c-5.745,16.947-9.041,35.181-9.041,50.026c0,14.752,3.309,31.263,9.319,46.489
	c4.87,12.332,13.718,29.385,28.225,40.593c2.62,2.025,5.756,3.036,8.893,3.036c3.136,0,6.273-1.011,8.892-3.034
	c14.512-11.21,23.36-28.263,28.227-40.596c6.01-15.225,9.319-31.735,9.319-46.487C414.15,167.081,410.854,148.848,405.107,131.905z"
	/>
</svg>